2.5Hzlow3min_grf.mot
version=1
nRows=10
nColumns 19
inDegrees=yes
endheader
time	1_ground_force_vx	1_ground_force_vy	1_ground_force_vz	1_ground_force_px	1_ground_force_py	1_ground_force_pz	1_ground_torque_x	1_ground_torque_y	1_ground_torque_z	2_ground_force_vx	2_ground_force_vy	2_ground_force_vz	2_ground_force_px	2_ground_force_py	2_ground_force_pz	2_ground_torque_x	2_ground_torque_y	2_ground_torque_z
            2.502500	          -13.418848	          103.673966	           -5.070889	           -0.217634	            0.006353	           -0.434955	            0.008372	           -0.064684	            0.003164	           -7.638308	          117.813144	            4.834828	           -0.255560	            0.005480	           -0.675009	            0.006612	           -0.101981	           -0.004185
            2.503000	          -14.247298	          107.283642	           -6.108068	           -0.216750	            0.006347	           -0.433514	            0.010158	           -0.076490	            0.004355	           -7.127673	          119.104553	            4.698424	           -0.255981	            0.005478	           -0.674898	           -0.001580	            0.026404	            0.001042
            2.503500	          -14.800119	          109.630921	           -7.013772	           -0.217195	            0.006351	           -0.434434	            0.018303	           -0.135575	            0.008674	           -6.715329	          121.684152	            4.707444	           -0.255816	            0.005482	           -0.675832	           -0.006867	            0.124424	            0.004813
            2.504000	          -15.030007	          112.695590	           -7.045919	           -0.216737	            0.006346	           -0.433374	            0.022002	           -0.164972	            0.010314	           -6.863168	          123.709101	            4.761659	           -0.255925	            0.005481	           -0.675588	           -0.014423	            0.259983	            0.010007
            2.504500	          -15.442290	          115.398119	           -6.712309	           -0.218441	            0.006348	           -0.433740	            0.027840	           -0.208048	            0.012101	           -6.822239	          125.366111	            4.908337	           -0.255902	            0.005485	           -0.676608	           -0.011673	            0.214508	            0.008398
            2.505000	          -15.442086	          118.641525	           -6.377405	           -0.217296	            0.006349	           -0.434049	            0.036518	           -0.280566	            0.015081	           -6.455997	          127.760715	            5.104432	           -0.255722	            0.005490	           -0.677883	           -0.004910	            0.097169	            0.003882
            2.505500	          -15.488260	          121.705639	           -6.272439	           -0.217727	            0.006348	           -0.433806	            0.039238	           -0.308333	            0.015891	           -5.523734	          129.053798	            4.920920	           -0.256629	            0.005482	           -0.676494	           -0.000252	            0.005885	            0.000224
            2.506000	          -15.076182	          123.869104	           -6.310043	           -0.217941	            0.006348	           -0.433898	            0.018503	           -0.152021	            0.007744	           -4.825699	          130.345884	            4.784436	           -0.257556	            0.005474	           -0.675322	           -0.001896	            0.051212	            0.001880
            2.506500	          -14.848959	          127.296555	           -6.846196	           -0.217833	            0.006342	           -0.432535	            0.015999	           -0.137159	            0.007377	           -3.479221	          133.667148	            4.326405	           -0.257360	            0.005483	           -0.677705	           -0.002520	            0.096798	            0.003133
            2.507000	          -14.621166	          130.723023	           -7.153070	           -0.216876	            0.006347	           -0.433601	            0.014955	           -0.133704	            0.007316	           -2.919599	          134.405102	            4.516506	           -0.257252	            0.005478	           -0.676059	           -0.004915	            0.226245	            0.007603
